<svg xmlns="http://www.w3.org/2000/svg" viewBox="0 0 1630 883"><defs><style>.cls-1{fill:#dc2626;}.cls-1,.cls-11,.cls-13,.cls-2,.cls-3,.cls-7,.cls-9{stroke:#000;}.cls-1,.cls-13{stroke-linecap:round;stroke-linejoin:round;stroke-width:10px;}.cls-2{fill:#dcdcdc;}.cls-11,.cls-2,.cls-3,.cls-7,.cls-9{stroke-miterlimit:10;}.cls-2,.cls-3{stroke-width:2.05px;}.cls-3,.cls-5{fill:#51bdff;}.cls-4{opacity:0.25;}.cls-6{fill:#fff;opacity:0.43;}.cls-7,.cls-8{fill:#e23000;}.cls-11,.cls-7,.cls-9{stroke-width:0.92px;}.cls-10,.cls-9{fill:#fcc000;}.cls-11,.cls-12{fill:#19c600;}.cls-13{fill:#af2525;}</style></defs><g id="Camada_2" data-name="Camada 2"><g id="Camada_1-2" data-name="Camada 1"><polyline class="cls-1" points="1624.89 5.4 291.09 5.4 5 877.87 1338.8 877.87 1338.91 877.56 1625 5.1"/><ellipse class="cls-2" cx="373.95" cy="98.63" rx="54.58" ry="56.7"/><ellipse class="cls-3" cx="376.2" cy="96.29" rx="43.32" ry="45.01"/><ellipse class="cls-4" cx="377.09" cy="97.24" rx="33.01" ry="34.3"/><ellipse class="cls-5" cx="363.01" cy="81.18" rx="16.44" ry="17.08"/><ellipse class="cls-6" cx="359.56" cy="77.31" rx="9.4" ry="9.76"/><ellipse class="cls-7" cx="481.58" cy="67.13" rx="19.44" ry="20.2"/><ellipse class="cls-4" cx="481.98" cy="67.55" rx="14.81" ry="15.39"/><ellipse class="cls-8" cx="475.66" cy="60.35" rx="7.38" ry="7.67"/><ellipse class="cls-6" cx="474.11" cy="58.61" rx="4.22" ry="4.38"/><ellipse class="cls-9" cx="537.03" cy="67.02" rx="19.44" ry="20.2"/><ellipse class="cls-4" cx="537.43" cy="67.45" rx="14.81" ry="15.39"/><ellipse class="cls-10" cx="531.11" cy="60.24" rx="7.38" ry="7.67"/><ellipse class="cls-6" cx="529.56" cy="58.51" rx="4.22" ry="4.38"/><ellipse class="cls-11" cx="593.33" cy="67.02" rx="19.44" ry="20.2"/><ellipse class="cls-4" cx="593.73" cy="67.45" rx="14.81" ry="15.39"/><ellipse class="cls-12" cx="587.42" cy="60.24" rx="7.38" ry="7.67"/><polyline class="cls-13" points="1625 5 1544 5 1295 775 40 771 40.12 770.88 5 878 1338.8 878 1338.91 877.7 1625 5.23"/></g></g></svg>