<svg xmlns="http://www.w3.org/2000/svg" viewBox="0 0 288.04 112.77"><defs><style>.cls-1{fill:#dcdcdc;}.cls-1,.cls-10,.cls-2,.cls-6,.cls-8{stroke:#000;stroke-miterlimit:10;}.cls-1,.cls-2{stroke-width:2px;}.cls-2,.cls-4{fill:#51bdff;}.cls-3{opacity:0.25;}.cls-5{fill:#fff;opacity:0.43;}.cls-6,.cls-7{fill:#e23000;}.cls-10,.cls-6,.cls-8{stroke-width:0.9px;}.cls-8,.cls-9{fill:#fcc000;}.cls-10,.cls-11{fill:#19c600;}</style></defs><g id="Camada_2" data-name="Camada 2"><g id="Camada_1-2" data-name="Camada 1"><ellipse class="cls-1" cx="54.31" cy="56.38" rx="53.31" ry="55.38"/><ellipse class="cls-2" cx="56.51" cy="54.1" rx="42.32" ry="43.96"/><ellipse class="cls-3" cx="57.38" cy="55.02" rx="32.25" ry="33.5"/><ellipse class="cls-4" cx="43.63" cy="39.33" rx="16.06" ry="16.69"/><ellipse class="cls-5" cx="40.25" cy="35.55" rx="9.18" ry="9.54"/><ellipse class="cls-6" cx="159.44" cy="25.61" rx="18.99" ry="19.73"/><ellipse class="cls-3" cx="159.83" cy="26.03" rx="14.47" ry="15.03"/><ellipse class="cls-7" cx="153.66" cy="18.99" rx="7.21" ry="7.49"/><ellipse class="cls-5" cx="152.15" cy="17.29" rx="4.12" ry="4.28"/><ellipse class="cls-8" cx="213.6" cy="25.51" rx="18.99" ry="19.73"/><ellipse class="cls-3" cx="213.99" cy="25.92" rx="14.47" ry="15.03"/><ellipse class="cls-9" cx="207.82" cy="18.88" rx="7.21" ry="7.49"/><ellipse class="cls-5" cx="206.31" cy="17.19" rx="4.12" ry="4.28"/><ellipse class="cls-10" cx="268.6" cy="25.51" rx="18.99" ry="19.73"/><ellipse class="cls-3" cx="268.99" cy="25.92" rx="14.47" ry="15.03"/><ellipse class="cls-11" cx="262.82" cy="18.88" rx="7.21" ry="7.49"/><ellipse class="cls-5" cx="261.31" cy="17.19" rx="4.12" ry="4.28"/></g></g></svg>